<svg version="1.0" xmlns="http://www.w3.org/2000/svg"
 width="512.000000pt" height="512.000000pt" viewBox="0 0 512.000000 512.000000"
 preserveAspectRatio="xMidYMid meet">

<g transform="translate(0.000000,512.000000) scale(0.100000,-0.100000)"
fill="#000000" stroke="none">
<path d="M2495 4626 c-37 -17 -70 -52 -84 -89 -6 -16 -11 -103 -11 -202 l0
-174 -47 -6 c-169 -21 -340 -93 -457 -192 -127 -106 -221 -254 -268 -418 -30
-106 -32 -305 -4 -410 39 -147 117 -284 220 -387 110 -110 171 -142 613 -318
224 -90 438 -179 476 -198 156 -80 267 -265 267 -442 -1 -233 -165 -441 -391
-495 -89 -21 -409 -21 -498 0 -171 41 -321 183 -371 350 -6 22 -15 106 -18
187 -8 159 -13 176 -76 222 -39 29 -133 29 -172 0 -66 -49 -69 -60 -69 -237 1
-137 4 -174 23 -241 96 -337 368 -566 724 -611 l47 -6 3 -189 c3 -206 6 -215
72 -264 39 -29 133 -29 172 0 66 49 69 58 72 264 l3 189 47 6 c156 20 316 83
430 170 119 90 228 242 276 387 101 300 25 627 -198 850 -110 110 -171 142
-613 318 -224 90 -438 179 -476 198 -156 80 -267 265 -267 442 1 233 165 441
391 495 45 10 119 15 249 15 209 0 278 -12 373 -62 109 -59 212 -184 247 -303
6 -22 15 -106 18 -187 8 -159 13 -176 76 -222 39 -29 133 -29 172 0 66 49 69
60 69 237 -1 137 -4 174 -23 241 -96 337 -368 566 -724 611 l-47 6 -3 189 c-3
206 -6 215 -70 263 -34 25 -113 32 -153 13z"/>
</g>
</svg>
