<svg version="1.0" xmlns="http://www.w3.org/2000/svg"
 width="512.000000pt" height="512.000000pt" viewBox="0 0 512.000000 512.000000"
 preserveAspectRatio="xMidYMid meet">

<g transform="translate(0.000000,512.000000) scale(0.100000,-0.100000)"
fill="#000000" stroke="none">
<path d="M3594 5109 c-603 -54 -1115 -298 -1560 -743 -410 -410 -639 -856
-726 -1411 -31 -202 -31 -588 0 -790 85 -546 302 -977 697 -1384 459 -473
1015 -734 1650 -774 l80 -5 -81 18 c-296 67 -553 279 -777 642 -315 509 -477
1152 -477 1898 0 733 158 1369 463 1875 226 374 492 597 791 665 88 20 78 21
-60 9z"/>
</g>
</svg>
